<svg width="1500" height="1000" viewBox="0 0 1000 1000" fill="none" xmlns="http://www.w3.org/2000/svg">
<path d="M814.981 829.717L698.994 646.64L698.794 800.463L496.198 460.635H354.36V1034.32H494.613L495.071 694.916L694.609 1019.11L814.981 829.717Z" fill="white"/>
<path d="M698.93 608.106H838.104L838.422 606.481V460.635H699.171L698.994 606.481L698.93 608.106Z" fill="white"/>
<path d="M1054.6 767.15C1021.04 766.513 990.723 787.112 978.92 818.565C998.57 789.146 1035.99 777.324 1068.94 790.124C1084.17 796.334 1104.19 806.355 1120.05 800.993C1104.97 779.798 1080.59 767.195 1054.6 767.15V767.15Z" fill="white"/>
<path d="M1213.53 836.175C1213.53 818.99 1204.19 815.001 1184.81 807.943C1170.42 802.933 1154.1 797.288 1142.22 781.76C1139.9 778.69 1137.75 774.731 1135.46 770.561C1130.33 762.057 1123.36 753.662 1114.98 746.859C1103.66 738.531 1088.82 734.474 1069.58 734.474C1030.96 734.501 996.171 757.836 981.459 793.581C1000.06 767.742 1030.97 753.742 1062.63 756.816C1094.29 759.891 1121.95 779.574 1135.25 808.509C1141.89 819.483 1154.99 824.722 1167.36 821.353C1186.29 817.296 1184.98 835.222 1213.57 841.292L1213.53 836.175Z" fill="white"/>
<path d="M1275.96 832.505V832.116C1275.53 718.346 1183.29 621.021 1069.58 621.021C1000.13 620.973 935.325 655.938 897.18 714.04L896.441 712.77L838.069 621.021H698.93L831.09 829.646L701.237 1034.32H837.258L896.441 943.309L957.178 1034.32H1092.74L969.37 839.951C967.32 836.163 966.209 831.94 966.126 827.634C966.116 800.181 977.006 773.85 996.395 754.439C1015.78 735.028 1042.09 724.124 1069.51 724.134C1126.68 724.134 1136.23 758.364 1148.57 774.454C1172.93 806.214 1221.57 792.311 1221.57 833.739V833.739C1221.71 843.447 1227.02 852.341 1235.49 857.068C1243.96 861.796 1254.31 861.641 1262.63 856.662C1270.95 851.683 1275.99 842.635 1275.85 832.927V832.927V832.505H1275.96Z" fill="white"/>
<path d="M1276.1 861.793C1277.48 871.47 1276.11 881.338 1272.15 890.271C1264.4 908.234 1251.46 902.234 1251.46 902.234C1251.46 902.234 1240.32 896.8 1247.09 886.391C1254.6 874.78 1269.44 876.121 1276.1 861.793Z" fill="white"/>
</svg>