<svg version="1.1" id="Layer_1" xmlns:x="ns_extend;" xmlns:i="ns_ai;" xmlns:graph="ns_graphs;" xmlns="http://www.w3.org/2000/svg" xmlns:xlink="http://www.w3.org/1999/xlink" x="0px" y="0px" viewBox="0 0 65 65" style="enable-background:new 0 0 65 65;" xml:space="preserve">
 <style type="text/css">
  .st0{fill-rule:evenodd;clip-rule:evenodd;fill:#110033;}
 </style>
 <metadata>
  <sfw xmlns="ns_sfw;">
   <slices>
   </slices>
   <sliceSourceBounds bottomLeftOrigin="true" height="65" width="65" x="-184" y="1.9">
   </sliceSourceBounds>
  </sfw>
 </metadata>
 <g>
  <path class="st0" d="M32.5,0C14.6,0,0,14.6,0,32.5S14.6,65,32.5,65S65,50.4,65,32.5S50.4,0,32.5,0z M32.5,1.5
		c8.1,0,15.6,3.2,21.1,8.3H11.4C16.9,4.7,24.4,1.5,32.5,1.5z M63.5,32.5c0,8.2-3.2,15.6-8.3,21.1V11.4
		C60.3,16.9,63.5,24.3,63.5,32.5z M32.5,63.5c-8.1,0-15.6-3.2-21.1-8.3h42.2C48.1,60.3,40.6,63.5,32.5,63.5z M9.8,11.4v42.2
		c-5.2-5.5-8.3-12.9-8.3-21.1S4.7,16.9,9.8,11.4z M11.4,53.6h42.2V11.4H11.4V53.6z">
  </path>
 </g>
</svg>